<svg width="current" height="current" viewBox="0 0 73 91" fill="none" xmlns="http://www.w3.org/2000/svg"><rect width="73" height="91" rx="9" fill="#FF6060"/><mask id="prefix__a" style="mask-type:alpha" maskUnits="userSpaceOnUse" x="13" y="0" width="60" height="75"><rect x="13" width="59.947" height="74.728" rx="9" fill="#fff"/></mask><g mask="url(#prefix__a)"><path fill="#fff" d="M49.133-.007L72.94-23.815 96.748-.007 72.94 23.8z"/></g><mask id="prefix__b" style="mask-type:alpha" maskUnits="userSpaceOnUse" x="13" y="0" width="60" height="75"><rect x="13" width="59.947" height="74.728" rx="9" fill="#fff"/></mask><g mask="url(#prefix__b)"><path fill="#fff" d="M49.133-.007L72.94-23.815 96.748-.007 72.94 23.8z"/></g><mask id="prefix__c" style="mask-type:alpha" maskUnits="userSpaceOnUse" x="33" y="25" width="39" height="38"><path fill="#000" fill-opacity=".37" d="M33.5 25h38v38h-38z"/></mask><g mask="url(#prefix__c)"><path fill="#000" fill-opacity=".37" d="M51.5 16.87L78.37-10l26.87 26.87-26.87 26.87z"/></g><mask id="prefix__d" style="mask-type:alpha" maskUnits="userSpaceOnUse" x="0" y="0" width="73" height="91"><rect width="73" height="91" rx="9" fill="#C4C4C4"/></mask><g mask="url(#prefix__d)"><mask id="prefix__e" style="mask-type:alpha" maskUnits="userSpaceOnUse" x="47" y="-50" width="61" height="75"><rect x="107.616" y="25" width="59.947" height="74.728" rx="9" transform="rotate(-180 107.616 25)" fill="#fff"/></mask><g mask="url(#prefix__e)"><path fill="#fff" d="M71.484 25.007L47.676 48.814 23.87 25.007 47.676 1.199z"/></g></g></svg>