<svg width="current" height="current" viewBox="0 0 73 91" fill="none" xmlns="http://www.w3.org/2000/svg">
    <rect width="73" height="91" rx="9" fill="#FF6060" />
    <mask id="mask0_0_1" style="mask-type:alpha" maskUnits="userSpaceOnUse" x="13" y="0" width="60" height="75">
        <rect x="13" width="59.947" height="74.7285" rx="9" fill="white" />
    </mask>
    <g mask="url(#mask0_0_1)">
        <rect x="49.1325" y="-0.00708008" width="33.6689" height="33.6689" transform="rotate(-45 49.1325 -0.00708008)"
            fill="white" />
    </g>
    <mask id="mask1_0_1" style="mask-type:alpha" maskUnits="userSpaceOnUse" x="13" y="0" width="60" height="75">
        <rect x="13" width="59.947" height="74.7285" rx="9" fill="white" />
    </mask>
    <g mask="url(#mask1_0_1)">
        <rect x="49.1325" y="-0.00708008" width="33.6689" height="33.6689" transform="rotate(-45 49.1325 -0.00708008)"
            fill="white" />
    </g>
    <mask id="mask2_0_1" style="mask-type:alpha" maskUnits="userSpaceOnUse" x="33" y="25" width="39" height="38">
        <rect x="33.5" y="25" width="38" height="38" fill="black" fill-opacity="0.37" />
    </mask>
    <g mask="url(#mask2_0_1)">
        <rect x="51.5" y="16.8701" width="38" height="38" transform="rotate(-45 51.5 16.8701)" fill="black"
            fill-opacity="0.37" />
    </g>
    <mask id="mask3_0_1" style="mask-type:alpha" maskUnits="userSpaceOnUse" x="0" y="0" width="73" height="91">
        <rect width="73" height="91" rx="9" fill="#C4C4C4" />
    </mask>
    <g mask="url(#mask3_0_1)">
        <mask id="mask4_0_1" style="mask-type:alpha" maskUnits="userSpaceOnUse" x="47" y="-50" width="61" height="75">
            <rect x="107.616" y="25" width="59.947" height="74.7285" rx="9" transform="rotate(-180 107.616 25)"
                fill="white" />
        </mask>
        <g mask="url(#mask4_0_1)">
            <rect x="71.4834" y="25.0071" width="33.6689" height="33.6689" transform="rotate(135 71.4834 25.0071)"
                fill="white" />
        </g>
    </g>
</svg>